<?xml version="1.0" encoding="utf-8"?>
<!-- Generator: Adobe Illustrator 16.0.4, SVG Export Plug-In . SVG Version: 6.00 Build 0)  -->
<!DOCTYPE svg PUBLIC "-//W3C//DTD SVG 1.1//EN" "http://www.w3.org/Graphics/SVG/1.1/DTD/svg11.dtd">
<svg version="1.1" id="Layer_1" xmlns="http://www.w3.org/2000/svg" xmlns:xlink="http://www.w3.org/1999/xlink" x="0px" y="0px"
	 width="566.474px" height="1855.858px" viewBox="0 0 566.474 1855.858" enable-background="new 0 0 566.474 1855.858"
	 xml:space="preserve">
<path d="M290.511,1013.979c-3.652,0-6.613-2.961-6.613-6.613c0-3.653,2.961-6.614,6.613-6.614c3.653,0,6.613,2.961,6.613,6.614
	C297.125,1011.019,294.164,1013.979,290.511,1013.979z M456.66,1456.39V228.159h0.004C456.664,102.159,354.513,0,228.504,0
	S0.345,102.159,0.345,228.159H0.66v1127.25c-1,2.463-0.566,4.953-0.566,7.47c0,48.711,39.364,88.2,88.076,88.2
	c48.712,0,88.138-39.715,88.138-88.426c0-0.09-0.065,0.506-0.065-0.494h0.309l22.109-69.782v-0.645l-21.714-70.562l21.714-70.562
	v-0.645l-21.714-70.562l21.714-70.562v-0.645l-21.714-70.562l21.714-70.562v-0.646l-21.714-70.562L198.66,725.3v-0.645
	l-21.714-70.562l21.714-70.562v-0.645l-21.714-70.562l21.714-70.563v-0.645l-21.714-70.562l21.714-70.562v-0.492l-22.324-71.342
	h0.002c0.047-22,18.345-40.828,40.912-40.828s40.865,18.828,40.912,40.828h0.498v0.834l21.714,70.562l-21.714,70.562v0.645
	l21.714,70.562l-21.714,70.562v0.645l21.714,70.562l-21.714,70.562v0.645l21.714,70.562l-21.714,70.562v0.646l21.714,70.562
	l-21.714,70.562v0.645l21.714,70.562l-21.714,70.562v0.645l21.714,70.562l-21.714,70.563v0.645l21.714,70.562l-21.714,70.562v89.681
	c-70,34.919-118.248,107.18-118.248,190.675c0,117.637,95.239,213,212.875,213s213.187-95.363,213.187-213
	C566.474,1562.586,521.66,1492.696,456.66,1456.39z M353.164,1751.052c-59.753,0-108.191-48.44-108.191-108.193
	c0-59.752,48.438-108.191,108.191-108.191s108.191,48.439,108.191,108.191C461.355,1702.611,412.917,1751.052,353.164,1751.052z"/>
</svg>
