<?xml version="1.0" encoding="utf-8"?>
<!-- Generator: Adobe Illustrator 16.0.4, SVG Export Plug-In . SVG Version: 6.00 Build 0)  -->
<!DOCTYPE svg PUBLIC "-//W3C//DTD SVG 1.1//EN" "http://www.w3.org/Graphics/SVG/1.1/DTD/svg11.dtd">
<svg version="1.1" id="Layer_1" xmlns="http://www.w3.org/2000/svg" xmlns:xlink="http://www.w3.org/1999/xlink" x="0px" y="0px"
	 width="33.105px" height="113.386px" viewBox="0 0 33.105 113.386" enable-background="new 0 0 33.105 113.386"
	 xml:space="preserve">
<path d="M26,88.773V13.124C26,5.876,20.248,0,13,0S0,5.876,0,13.124v69.427c0,0.152,0.26,0.305,0.26,0.461
	c0,3.001,2.573,5.228,5.575,5.228c3.001,0,5.578-2.625,5.578-5.625h-0.004h0.019L12,78.667v-0.04l-1.338-4.348L12,69.933v-0.04
	l-1.338-4.348L12,61.197v-0.04l-1.338-4.348L12,52.462v-0.039l-1.338-4.348L12,43.728v-0.04l-1.338-4.348L12,34.992v-0.04
	l-1.338-4.348L12,26.257v-0.039l-1.338-4.348L12,17.522v-0.031l-1-4.337l0,0c0-0.062,0-0.019,0-0.021c0-0.882,0.618-1.604,1.5-1.604
	c0.882,0,1.5,0.727,1.5,1.608c0,0.002,0,0.358,0,0.358l0,0v-0.349l1.338,4.348L14,21.843v0.039l1.338,4.348L14,30.577v0.041
	l1.338,4.348L14,39.313v0.039l1.338,4.348L14,48.048v0.04l1.338,4.347L14,56.782v0.041l1.338,4.348L14,65.519v0.039l1.338,4.348
	L14,74.253v0.04l1.338,4.348L14,82.988v5.525c-4,2.151-6.966,6.604-6.966,11.748c0,7.248,6.028,13.124,13.275,13.124
	c7.248,0,12.797-5.876,12.797-13.124C33.105,95.316,30,91.01,26,88.773z M20.462,106.928c-3.682,0-6.667-2.984-6.667-6.666
	s2.984-6.666,6.667-6.666c3.682,0,6.666,2.984,6.666,6.666S24.144,106.928,20.462,106.928z"/>
</svg>
